PathFileType	4	(X/Y/Z)	/home/abdul/Desktop/myosuite/custom_workspace/IK/output/01_12_1.trc
DataRate	CameraRate	NumFrames	NumMarkers	Units	OrigDataRate	OrigDataStartFrame	OrigNumFrames
200.0	200.0	57	3	mm	200.0	372	1486
Frame#	Time	V_Shoulder			V_Elbow			V_Wrist		
		X1	Y1	Z1	X2	Y2	Z2	X3	Y3	Z3

372	1.855	23.661584900941246	806.7483835272528	302.9470214840322	-52.171625283442346	648.789638277817	34.01832636290582	33.27214125649565	500.1023251124181	199.97194838589576
373	1.86	23.698959372085216	807.438121554524	302.93547576795027	-51.905530297572916	649.3040191452988	34.13601932884298	33.86562854693905	502.39082635184536	201.4935938371942
374	1.865	23.738587566118735	808.1191009931622	302.9251599137055	-51.64480311472542	649.7848991325747	34.27831188934237	34.45089881707872	504.64628317855863	203.0050366069288
375	1.87	23.780490641747864	808.7914175111127	302.91617272426356	-51.38974926376038	650.2324332159276	34.44550950104193	35.02817247678846	506.86827328033985	204.50658063852188
376	1.875	23.82468815538275	809.455176411318	302.90861106648157	-51.140655800083735	650.6468171636783	34.637886499774766	35.597675658391644	509.05642650319743	205.99853495483643
377	1.88	23.871197959674703	810.1104916998744	302.90256966326336	-50.89779097745882	651.0282867320708	34.855685327251805	36.159638955354616	511.2104245926656	207.48121234363177
378	1.885	23.920036102884115	810.7574851457285	302.89814089089987	-50.6614039654072	651.3771167816899	35.099115826594435	36.71429616342964	513.33000083251	208.95492808359748
379	1.89	23.971216729598652	811.3962853356667	302.8954145821497	-50.43172461229228	651.6936203160739	35.368354609044644	37.26188302952818	515.4149395819217	210.4199987127691
380	1.895	24.024751983309926	812.0270267283713	302.89447783557017	-50.2089632541901	651.978147444368	35.66354449399808	37.80263601363008	517.465075712483	211.87674084081738
381	1.9	24.08065191134313	812.6498487113198	302.8954148315522	-49.99331056965208	652.231084270065	35.98479402432239	38.33679106902427	519.4802939463773	213.32547000641893
382	1.905	24.138924372618266	813.2648946643003	302.89830665545986	-49.78493748044745	652.4528517080901	36.332177058737834	38.86458244612639	521.460528097515	214.766499580659
383	1.91	24.19957494870236	813.8723110332717	302.903231128213	-49.58399509834653	652.6439042327281	36.70573244285007	39.386241525025454	523.4057602174371	216.20013971719146
384	1.915	24.262606858590885	814.4722464182463	302.91026264459344	-49.39061471797412	652.8047285591538	37.10546376023878	39.90199568177297	525.3160196480567	217.626696349679
385	1.92	24.328020877633126	815.0648506787865	302.91947201950126	-49.20490785572938	652.9358422616149	37.53133916482389	40.41206719324668	527.1913819834913	219.04647023685868
386	1.925	24.395815260991796	815.6502740605971	302.9309263423301	-49.0269663347263	653.0377923316453	37.983291295551446	40.916672185199815	529.0319679434433	220.45975605541568
387	1.93	24.465985672002176	816.2286663465748	302.94468883958683	-48.85686241564494	653.1111536800173	38.46121727425835	41.41601962785374	530.8379421607817	221.86684154069923
388	1.935	24.538525115771918	816.8001760355182	302.9608187458354	-48.694648973290086	653.156527586483	38.96497878738218	41.910310383112204	532.609511886186	223.2680066751742
389	1.94	24.613423878341568	817.3649495515433	302.9793711830104	-48.54035971853057	653.17454010168	39.49440225197225	42.39973630717863	534.3469256129146	224.66352292437483
390	1.945	24.69066947171038	817.9231304870551	303.0003970481044	-48.39400946514884	653.1658404058653	40.04927906623055	42.884479412046495	536.0504716249695	226.05365252000885
391	1.95	24.770246585021823	818.4748588819253	303.02394290919534	-48.25559444097631	653.1310991294022	40.62936594456601	43.36471108901175	537.7204764721398	227.4386477897621
392	1.955	24.852137042196315	819.0202705413095	303.05005090973964	-48.125092642534845	653.0710066401414	41.23438533688681	43.84059139702771	539.3573033756225	228.81875053326917
393	1.96	24.936319766289586	819.5594963943089	303.07875868102565	-48.002464232252194	652.98627130302	41.86402593158482	44.312268418388584	540.9613505681468	230.19419144365497
394	1.965	25.022770750838976	820.0926618954594	303.1100992626727	-47.88765197717082	652.8776177173497	42.5179432413874	44.77987768388916	542.5330495727544	231.56518957400777
395	1.97	25.11146303843464	820.6198864708061	303.14410103105973	-47.78058172792613	652.7457849373684	43.19576027096623	45.24354166926461	544.0728634246195	232.93195184812515
396	1.975	25.202366706719445	821.141283010108	303.1807876355976	-47.6811629366316	652.5915246817151	43.8970682649031	45.70336936436546	545.5812848405174	234.2946726148749
397	1.98	25.2954488619846	821.6569574065039	303.22017794278304	-47.5892892121753	652.4155995375208	44.621427534320546	46.159455916166834	547.0588343407649	235.65353324553263
398	1.985	25.39067364049013	822.1670081447551	303.2622859880136	-47.50483891130554	652.2187811648275	45.368368360192726	46.61188234634913	548.5060583286675	237.00870177349503
399	1.99	25.488002217602926	822.6715259389724	303.30712093517496	-47.42767576376319	652.0018485070169	46.13739197106037	47.06071534382276	549.9235271326976	238.36033257581462
400	1.995	25.587392824810085	823.1705934205124	303.3546870440485	-47.35764952960566	651.7655860128875	46.92797159258488	47.50600713220577	551.3118330168209	239.70856609605136
401	2.0	25.688800774631034	823.6642848765164	303.4049836456247	-47.294596686761466	651.5107818759336	47.739553566091274	47.947795411904345	552.6715881645479	241.05352860798382
402	2.005	25.792178493418877	824.1526660393488	303.4580051254454	-47.23834114675573	651.2382262962815	48.57155853296867	48.38610337609498	554.0034226424498	242.39533201975925
403	2.01	25.89747556201013	824.6357939269748	303.5137409151304	-47.18869499645436	650.9487097706055	49.423382681523094	48.8209397995631	555.3079823489986	243.7340737180865
404	2.015	26.004638764152457	825.1137167340971	303.57217549228284	-47.14545926358795	650.6430214151972	50.29439905260998	49.252299199015866	556.5859269546963	245.06983645209345
405	2.02	26.113612142613288	825.5864737736543	303.6332883889949	-47.108424703734464	650.3219473271927	51.18395890011836	49.68016206315577	557.8379278395298	246.40268825647684
406	2.025	26.22433706284727	826.054095468066	303.6970542092067	-47.077372606362395	649.9862689887696	52.09139310213443	50.10449515047482	559.0646660338398	247.7326824135741
407	2.03	26.336752284078	826.5166033893846	303.76344265519253	-47.05207561746167	649.6367617189154	53.016013618384356	50.52525185240913	560.2668301687092	249.05985745398405
408	2.035	26.450794037628246	826.974010347299	303.8324185634699	-47.032298576217634	649.2741931771516	53.95711498934335	50.94237261918072	561.4451144419813	250.38423719535217
409	2.04	26.566396112313544	827.4263205237106	303.9039419504363	-47.017799363114214	648.899321923348	54.91397587220354	51.355785445352296	562.6002166059911	251.70583081892178
410	2.045	26.683489946696568	827.8735296523874	303.97796806804143	-47.00832975678503	648.512896037525	55.88586060871661	51.765406411834405	563.7328359830553	253.02463298342707
411	2.05	26.802004727984468	828.315625241982	304.0544474697963	-47.00363629686911	648.1156518032731	56.87202081977276	52.17114028081524	564.8436715147039	254.34062397587726
412	2.055	26.9218674973384	828.7525868404906	304.1333260874064	-47.003461150072326	647.7083124581565	57.871697021444035	52.57288113983235	565.9334198505569	255.65376989874915
413	2.06	27.043003261354375	829.1843863390196	304.21454531829164	-47.00754297659201	647.2915870141916	58.88412025711585	52.97051309097289	567.0027734826544	256.9640228930735
414	2.065	27.165335109466895	829.610988312534	304.2980421242246	-47.015617794034625	646.8661691512049	59.90851374025331	53.36391098097348	568.0524189309285	258.271321396864
415	2.07	27.288784337021127	830.0323503950709	304.3837491412783	-47.02741983594896	646.4327361855806	60.944094502304814	53.75294116779355	569.0830349853571	259.57559043829895
416	2.075	27.413270573754392	830.4484236867384	304.47159480123355	-47.04268240211345	645.9919481165987	61.99007504023308	54.13746231906107	570.0952910101689	260.876741963014
417	2.08	27.538711917421555	830.8591531896758	304.5615034645446	-47.06113869775726	645.5444467522498	63.045664958183174	54.51732623764213	571.0898453152524	262.17467519480675
418	2.085	27.665025072290444	831.2644782700423	304.65339556492	-47.08252265896048	645.0908549160786	64.11007259784925	54.89237870947174	572.0673435996773	263.4692770289797
419	2.09	27.792125492221984	831.6643331430224	304.747187765523	-47.10656976156872	644.6317757362773	65.18250665218581	55.26246036870703	573.0284174719487	264.76042245746874
420	2.095	27.919927528036055	832.0586473777834	304.84279312675	-47.133017811067376	644.1677920178934	66.26217775722587	55.62740757522751	573.9736830513036	266.0479750248104
421	2.1	28.04834457884897	832.4473464193135	304.9401212854895	-47.1616077109889	643.6994656986587	67.34830005692008	55.987053299510194	574.9037396540081	267.331787313905
422	2.105	28.177289247052983	832.8303521240665	305.0390786457045	-47.19208420756706	643.2273373885794	68.44009273609664	56.341228009948615	575.8191685682573	268.61170146042525
423	2.11	28.306673496591255	833.2075833063637	305.13956858012403	-47.224196608500854	642.7519259930291	69.53678151686361	56.68976055776277	576.7205319209072	269.88754969460774
424	2.115	28.436408814164647	833.5789562925611	305.2414916427551	-47.2576994738451	642.2737284187087	70.63760011402914	57.032479054761744	577.6083716388887	271.1591549090472
425	2.12	28.566406372989533	833.944385480048	305.34474579186445	-47.292353277199254	641.793219361417	71.74179164539696	57.36921173936936	578.4832085077808	272.4263312509869
426	2.125	28.696577198710454	834.3037838982345	305.4492266230008	-47.32792503552051	641.3108511741834	72.84860999309561	57.69978782650586	579.3455413296301	273.6888847374754
427	2.13	28.82683233705916	834.6570637687705	305.55482761155264	-47.364188906038976	640.8270538139247	73.95732111241023	58.02403833712917	580.1958461817237	274.94661389163474
428	2.135	28.957083022843197	835.0041370623643	305.6614403642609	-47.400926748901114	640.3422348644183	75.06720428489388	58.3417969034725	581.0345757776194	276.1993103981709
